<svg width="40" height="130" viewBox="0 0 40 130" fill="none" xmlns="http://www.w3.org/2000/svg">
<rect width="40" height="130" fill="black"/>
<path d="M15.004 100.87C15.004 99.5633 15.27 98.6113 15.802 98.014C16.3247 97.4167 17.0573 97.118 18 97.118C18.42 97.118 18.8213 97.188 19.204 97.328C19.5867 97.4587 19.932 97.678 20.24 97.986C20.5387 98.294 20.7767 98.7047 20.954 99.218C21.122 99.722 21.206 100.343 21.206 101.08L21.206 102.158L25 102.158L25 103.67L15.004 103.67L15.004 100.87ZM16.278 100.982L16.278 102.158L19.932 102.158L19.932 101.248C19.932 100.679 19.8713 100.203 19.75 99.82C19.6193 99.4373 19.4187 99.1527 19.148 98.966C18.868 98.77 18.504 98.672 18.056 98.672C17.4587 98.672 17.0153 98.8587 16.726 99.232C16.4273 99.596 16.278 100.179 16.278 100.982ZM17.314 91.5417C17.314 91.4111 17.3233 91.2664 17.342 91.1077C17.3513 90.9491 17.3653 90.8184 17.384 90.7157L18.77 90.8697C18.742 90.9724 18.7187 91.0937 18.7 91.2337C18.6813 91.3737 18.672 91.5044 18.672 91.6257C18.672 91.9057 18.728 92.1764 18.84 92.4377C18.9427 92.6897 19.0967 92.9184 19.302 93.1237C19.498 93.3291 19.7407 93.4924 20.03 93.6137C20.3193 93.7257 20.6507 93.7817 21.024 93.7817L25 93.7817L25 95.2657L17.454 95.2657L17.454 94.0897L18.798 93.8937L18.798 93.8377C18.5273 93.6791 18.28 93.4877 18.056 93.2637C17.832 93.0397 17.6547 92.7831 17.524 92.4937C17.384 92.2044 17.314 91.8871 17.314 91.5417ZM21.22 82.9419C21.8453 82.9419 22.4007 83.0259 22.886 83.1939C23.3713 83.3619 23.782 83.5999 24.118 83.9079C24.454 84.2159 24.7107 84.5892 24.888 85.0279C25.056 85.4666 25.14 85.9612 25.14 86.5119C25.14 87.0159 25.056 87.4826 24.888 87.9119C24.7107 88.3412 24.454 88.7146 24.118 89.0319C23.782 89.3399 23.3713 89.5826 22.886 89.7599C22.4007 89.9372 21.8407 90.0259 21.206 90.0259C20.3753 90.0259 19.6707 89.8859 19.092 89.6059C18.5133 89.3166 18.0747 88.9059 17.776 88.3739C17.468 87.8326 17.314 87.1979 17.314 86.4699C17.314 85.7792 17.468 85.1726 17.776 84.6499C18.0747 84.1179 18.5133 83.7026 19.092 83.4039C19.6707 83.0959 20.38 82.9419 21.22 82.9419ZM21.22 88.4999C21.78 88.4999 22.2653 88.4299 22.676 88.2899C23.0773 88.1499 23.3853 87.9306 23.6 87.6319C23.8147 87.3332 23.922 86.9506 23.922 86.4839C23.922 86.0172 23.8147 85.6346 23.6 85.3359C23.3853 85.0372 23.0773 84.8179 22.676 84.6779C22.2653 84.5379 21.78 84.4679 21.22 84.4679C20.6413 84.4679 20.156 84.5426 19.764 84.6919C19.372 84.8319 19.0733 85.0512 18.868 85.3499C18.6533 85.6392 18.546 86.0219 18.546 86.4979C18.546 87.1979 18.7793 87.7066 19.246 88.0239C19.7127 88.3412 20.3707 88.4999 21.22 88.4999ZM25.14 78.4707C25.14 79.376 24.8133 80.1087 24.16 80.6687C23.5067 81.2193 22.536 81.4947 21.248 81.4947C19.9507 81.4947 18.9707 81.2147 18.308 80.6547C17.6453 80.0947 17.314 79.3573 17.314 78.4427C17.314 78.06 17.3653 77.7287 17.468 77.4487C17.5613 77.1593 17.692 76.912 17.86 76.7067C18.028 76.492 18.2147 76.31 18.42 76.1607L18.42 76.0767C18.2893 76.0953 18.1027 76.1187 17.86 76.1467C17.608 76.1747 17.384 76.1887 17.188 76.1887L14.36 76.1887L14.36 74.7047L25 74.7047L25 75.8667L23.992 76.1187L23.992 76.1887C24.2067 76.3287 24.4027 76.506 24.58 76.7207C24.748 76.926 24.8833 77.1733 24.986 77.4627C25.0887 77.752 25.14 78.088 25.14 78.4707ZM23.922 78.1207C23.922 77.3927 23.7213 76.8793 23.32 76.5807C22.9093 76.282 22.298 76.1327 21.486 76.1327L21.262 76.1327C20.3753 76.1327 19.6987 76.2773 19.232 76.5667C18.7653 76.8467 18.532 77.3693 18.532 78.1347C18.532 78.7413 18.7793 79.1987 19.274 79.5067C19.7593 79.8147 20.4267 79.9687 21.276 79.9687C22.1253 79.9687 22.7787 79.8147 23.236 79.5067C23.6933 79.1987 23.922 78.7367 23.922 78.1207ZM17.454 65.883L25 65.883L25 67.073L24.006 67.283L24.006 67.353C24.2673 67.5117 24.482 67.717 24.65 67.969C24.818 68.221 24.9393 68.4963 25.014 68.795C25.098 69.0937 25.14 69.4017 25.14 69.719C25.14 70.307 25.0467 70.8063 24.86 71.217C24.664 71.6183 24.3653 71.9263 23.964 72.141C23.5533 72.3463 23.0307 72.449 22.396 72.449L17.454 72.449L17.454 70.951L22.172 70.951C22.76 70.951 23.1987 70.8297 23.488 70.587C23.7773 70.335 23.922 69.9477 23.922 69.425C23.922 68.9023 23.8193 68.4917 23.614 68.193C23.4087 67.8943 23.11 67.6843 22.718 67.563C22.3167 67.4323 21.836 67.367 21.276 67.367L17.454 67.367L17.454 65.883ZM25.14 60.5227C25.14 61.2133 25.0047 61.82 24.734 62.3427C24.4633 62.8653 24.0433 63.2713 23.474 63.5607C22.8953 63.85 22.1627 63.9947 21.276 63.9947C20.3427 63.9947 19.5867 63.8407 19.008 63.5327C18.4293 63.2153 18.0047 62.7907 17.734 62.2587C17.454 61.7173 17.314 61.1013 17.314 60.4107C17.314 59.9907 17.3607 59.5987 17.454 59.2347C17.538 58.8613 17.636 58.5533 17.748 58.3107L18.952 58.7587C18.8493 59.02 18.7607 59.3 18.686 59.5987C18.6113 59.888 18.574 60.1633 18.574 60.4247C18.574 60.8913 18.6767 61.2787 18.882 61.5867C19.078 61.8853 19.3767 62.1093 19.778 62.2587C20.17 62.3987 20.6647 62.4687 21.262 62.4687C21.8313 62.4687 22.312 62.394 22.704 62.2447C23.096 62.0953 23.3947 61.876 23.6 61.5867C23.796 61.288 23.894 60.9193 23.894 60.4807C23.894 60.0607 23.8473 59.692 23.754 59.3747C23.6607 59.0573 23.5393 58.7587 23.39 58.4787L24.678 58.4787C24.8367 58.7493 24.9533 59.0433 25.028 59.3607C25.1027 59.678 25.14 60.0653 25.14 60.5227ZM23.936 53.9814C23.936 53.7854 23.9173 53.5847 23.88 53.3794C23.8427 53.174 23.8007 52.9967 23.754 52.8474L24.874 52.8474C24.9487 53.006 25.0093 53.2207 25.056 53.4914C25.112 53.762 25.14 54.0327 25.14 54.3034C25.14 54.714 25.07 55.092 24.93 55.4374C24.79 55.7734 24.5473 56.044 24.202 56.2494C23.8567 56.4547 23.376 56.5574 22.76 56.5574L18.588 56.5574L18.588 57.6074L17.916 57.6074L17.356 56.5014L15.76 55.9834L15.76 55.0734L17.454 55.0734L17.454 52.9174L18.588 52.9174L18.588 55.0734L22.732 55.0734C23.1427 55.0734 23.446 54.9754 23.642 54.7794C23.838 54.574 23.936 54.308 23.936 53.9814ZM25 47.5333L15.004 47.5333L15.004 46.0213L23.698 46.0213L23.698 41.7513L25 41.7513L25 47.5333ZM17.454 38.7114L25 38.7114L25 40.1954L17.454 40.1954L17.454 38.7114ZM14.584 39.4394C14.584 39.2154 14.6493 39.0194 14.78 38.8514C14.9107 38.6834 15.13 38.5994 15.438 38.5994C15.7367 38.5994 15.956 38.6834 16.096 38.8514C16.2267 39.0194 16.292 39.2154 16.292 39.4394C16.292 39.6821 16.2267 39.8874 16.096 40.0554C15.956 40.2141 15.7367 40.2934 15.438 40.2934C15.13 40.2934 14.9107 40.2141 14.78 40.0554C14.6493 39.8874 14.584 39.6821 14.584 39.4394ZM22.872 31.369C23.3667 31.369 23.782 31.4903 24.118 31.733C24.454 31.9756 24.7107 32.3256 24.888 32.783C25.056 33.2403 25.14 33.791 25.14 34.435C25.14 34.967 25.098 35.4243 25.014 35.807C24.9393 36.1803 24.8273 36.5256 24.678 36.843L23.376 36.843C23.5347 36.507 23.6793 36.1196 23.81 35.681C23.9313 35.2423 23.992 34.813 23.992 34.393C23.992 33.833 23.9033 33.4316 23.726 33.189C23.5487 32.937 23.3107 32.811 23.012 32.811C22.844 32.811 22.6947 32.8576 22.564 32.951C22.424 33.0443 22.284 33.2216 22.144 33.483C21.9947 33.735 21.8267 34.1083 21.64 34.603C21.444 35.079 21.2527 35.485 21.066 35.821C20.87 36.157 20.6413 36.4136 20.38 36.591C20.1093 36.7683 19.764 36.857 19.344 36.857C18.6907 36.857 18.1913 36.5956 17.846 36.073C17.4913 35.541 17.314 34.841 17.314 33.973C17.314 33.5156 17.3607 33.0863 17.454 32.685C17.538 32.2743 17.6687 31.8776 17.846 31.495L18.98 31.985C18.8773 32.1996 18.7933 32.4236 18.728 32.657C18.6533 32.881 18.5927 33.1096 18.546 33.343C18.4993 33.567 18.476 33.8003 18.476 34.043C18.476 34.491 18.546 34.8316 18.686 35.065C18.826 35.2983 19.022 35.415 19.274 35.415C19.4513 35.415 19.6053 35.3636 19.736 35.261C19.8667 35.149 19.9973 34.9576 20.128 34.687C20.2587 34.4163 20.4173 34.0476 20.604 33.581C20.7813 33.1143 20.9633 32.7176 21.15 32.391C21.3367 32.055 21.5653 31.803 21.836 31.635C22.1067 31.4576 22.452 31.369 22.872 31.369ZM23.936 26.8837C23.936 26.6877 23.9173 26.4871 23.88 26.2817C23.8427 26.0764 23.8007 25.8991 23.754 25.7497L24.874 25.7497C24.9487 25.9084 25.0093 26.1231 25.056 26.3937C25.112 26.6644 25.14 26.9351 25.14 27.2057C25.14 27.6164 25.07 27.9944 24.93 28.3397C24.79 28.6757 24.5473 28.9464 24.202 29.1517C23.8567 29.3571 23.376 29.4597 22.76 29.4597L18.588 29.4597L18.588 30.5097L17.916 30.5097L17.356 29.4037L15.76 28.8857L15.76 27.9757L17.454 27.9757L17.454 25.8197L18.588 25.8197L18.588 27.9757L22.732 27.9757C23.1427 27.9757 23.446 27.8777 23.642 27.6817C23.838 27.4764 23.936 27.2104 23.936 26.8837Z" fill="white"/>
</svg>
