<svg width="118" height="33" viewBox="0 0 118 33" fill="none" xmlns="http://www.w3.org/2000/svg">
<path d="M6.8 24V9.72H9.82V21.5H15.62V24H6.8ZM21.5686 12.88C22.5819 12.88 23.4486 13.0733 24.1686 13.46C24.9019 13.8467 25.4686 14.4067 25.8686 15.14C26.2686 15.8733 26.4686 16.7733 26.4686 17.84V19.28H19.4286C19.4553 20.12 19.7019 20.78 20.1686 21.26C20.6486 21.74 21.3086 21.98 22.1486 21.98C22.8553 21.98 23.4953 21.9133 24.0686 21.78C24.6419 21.6333 25.2353 21.4133 25.8486 21.12V23.42C25.3153 23.6867 24.7486 23.88 24.1486 24C23.5619 24.1333 22.8486 24.2 22.0086 24.2C20.9153 24.2 19.9486 24 19.1086 23.6C18.2686 23.1867 17.6086 22.5667 17.1286 21.74C16.6486 20.9133 16.4086 19.8733 16.4086 18.62C16.4086 17.34 16.6219 16.28 17.0486 15.44C17.4886 14.5867 18.0953 13.9467 18.8686 13.52C19.6419 13.0933 20.5419 12.88 21.5686 12.88ZM21.5886 15C21.0153 15 20.5353 15.1867 20.1486 15.56C19.7753 15.9333 19.5553 16.5133 19.4886 17.3H23.6686C23.6686 16.86 23.5886 16.4667 23.4286 16.12C23.2819 15.7733 23.0553 15.5 22.7486 15.3C22.4419 15.1 22.0553 15 21.5886 15ZM32.565 12.86C34.0317 12.86 35.1517 13.18 35.925 13.82C36.7117 14.4467 37.105 15.4133 37.105 16.72V24H35.025L34.445 22.52H34.365C34.0583 22.9067 33.7383 23.2267 33.405 23.48C33.085 23.7333 32.7117 23.9133 32.285 24.02C31.8717 24.14 31.3583 24.2 30.745 24.2C30.105 24.2 29.525 24.08 29.005 23.84C28.4983 23.5867 28.0983 23.2067 27.805 22.7C27.5117 22.18 27.365 21.5267 27.365 20.74C27.365 19.58 27.7717 18.7267 28.585 18.18C29.3983 17.62 30.6183 17.3133 32.245 17.26L34.145 17.2V16.72C34.145 16.1467 33.9917 15.7267 33.685 15.46C33.3917 15.1933 32.9783 15.06 32.445 15.06C31.9117 15.06 31.3917 15.14 30.885 15.3C30.3783 15.4467 29.8717 15.6333 29.365 15.86L28.385 13.84C28.9717 13.5333 29.6183 13.2933 30.325 13.12C31.045 12.9467 31.7917 12.86 32.565 12.86ZM32.985 18.98C32.025 19.0067 31.3583 19.18 30.985 19.5C30.6117 19.82 30.425 20.24 30.425 20.76C30.425 21.2133 30.5583 21.54 30.825 21.74C31.0917 21.9267 31.4383 22.02 31.865 22.02C32.505 22.02 33.045 21.8333 33.485 21.46C33.925 21.0733 34.145 20.5333 34.145 19.84V18.94L32.985 18.98ZM45.4553 12.88C45.602 12.88 45.7753 12.8867 45.9753 12.9C46.1753 12.9133 46.3353 12.9333 46.4553 12.96L46.2353 15.76C46.142 15.7333 46.002 15.7133 45.8153 15.7C45.642 15.6733 45.4886 15.66 45.3553 15.66C44.9686 15.66 44.5953 15.7133 44.2353 15.82C43.8753 15.9133 43.5486 16.0667 43.2553 16.28C42.9753 16.4933 42.7486 16.78 42.5753 17.14C42.4153 17.4867 42.3353 17.92 42.3353 18.44V24H39.3553V13.08H41.6153L42.0553 14.92H42.1953C42.4086 14.5467 42.6753 14.2067 42.9953 13.9C43.3153 13.5933 43.682 13.3467 44.0953 13.16C44.522 12.9733 44.9753 12.88 45.4553 12.88ZM53.8373 12.88C55.0107 12.88 55.9507 13.2 56.6573 13.84C57.364 14.4667 57.7173 15.48 57.7173 16.88V24H54.7373V17.62C54.7373 16.8333 54.5973 16.2467 54.3173 15.86C54.0373 15.46 53.5907 15.26 52.9773 15.26C52.0707 15.26 51.4507 15.5733 51.1173 16.2C50.784 16.8133 50.6173 17.7 50.6173 18.86V24H47.6373V13.08H49.9173L50.3173 14.48H50.4773C50.7173 14.1067 51.0107 13.8067 51.3573 13.58C51.704 13.34 52.0907 13.1667 52.5173 13.06C52.944 12.94 53.384 12.88 53.8373 12.88ZM77.1972 12.88C78.4372 12.88 79.3705 13.2 79.9972 13.84C80.6372 14.4667 80.9572 15.48 80.9572 16.88V24H77.9772V17.62C77.9772 16.8333 77.8439 16.2467 77.5772 15.86C77.3105 15.46 76.8972 15.26 76.3372 15.26C75.5505 15.26 74.9905 15.54 74.6572 16.1C74.3239 16.66 74.1572 17.4667 74.1572 18.52V24H71.1772V17.62C71.1772 17.1 71.1172 16.6667 70.9972 16.32C70.8772 15.9733 70.6972 15.7133 70.4572 15.54C70.2172 15.3533 69.9105 15.26 69.5372 15.26C68.9905 15.26 68.5572 15.4 68.2372 15.68C67.9172 15.96 67.6905 16.3667 67.5572 16.9C67.4239 17.4333 67.3572 18.0867 67.3572 18.86V24H64.3772V13.08H66.6572L67.0572 14.48H67.2172C67.4439 14.1067 67.7239 13.8067 68.0572 13.58C68.3905 13.34 68.7572 13.1667 69.1572 13.06C69.5705 12.94 69.9839 12.88 70.3972 12.88C71.1972 12.88 71.8772 13.0133 72.4372 13.28C72.9972 13.5333 73.4239 13.9333 73.7172 14.48H73.9772C74.3105 13.92 74.7705 13.5133 75.3572 13.26C75.9572 13.0067 76.5705 12.88 77.1972 12.88ZM93.1456 18.52C93.1456 19.4267 93.019 20.2333 92.7656 20.94C92.5256 21.6467 92.1723 22.2467 91.7056 22.74C91.2523 23.22 90.699 23.5867 90.0456 23.84C89.3923 24.08 88.6523 24.2 87.8256 24.2C87.0656 24.2 86.359 24.08 85.7056 23.84C85.0656 23.5867 84.5123 23.22 84.0456 22.74C83.579 22.2467 83.2123 21.6467 82.9456 20.94C82.6923 20.2333 82.5656 19.4267 82.5656 18.52C82.5656 17.3067 82.779 16.2867 83.2056 15.46C83.6323 14.62 84.2456 13.98 85.0456 13.54C85.8456 13.1 86.7923 12.88 87.8856 12.88C88.9123 12.88 89.819 13.1 90.6056 13.54C91.3923 13.98 92.0123 14.62 92.4656 15.46C92.919 16.2867 93.1456 17.3067 93.1456 18.52ZM85.6056 18.52C85.6056 19.24 85.679 19.8467 85.8256 20.34C85.9856 20.82 86.2323 21.1867 86.5656 21.44C86.899 21.68 87.3323 21.8 87.8656 21.8C88.399 21.8 88.8256 21.68 89.1456 21.44C89.479 21.1867 89.719 20.82 89.8656 20.34C90.0256 19.8467 90.1056 19.24 90.1056 18.52C90.1056 17.8 90.0256 17.2 89.8656 16.72C89.719 16.24 89.479 15.88 89.1456 15.64C88.8123 15.4 88.379 15.28 87.8456 15.28C87.059 15.28 86.4856 15.5533 86.1256 16.1C85.779 16.6333 85.6056 17.44 85.6056 18.52ZM100.908 12.88C101.055 12.88 101.228 12.8867 101.428 12.9C101.628 12.9133 101.788 12.9333 101.908 12.96L101.688 15.76C101.595 15.7333 101.455 15.7133 101.268 15.7C101.095 15.6733 100.942 15.66 100.808 15.66C100.422 15.66 100.048 15.7133 99.6884 15.82C99.3284 15.9133 99.0018 16.0667 98.7084 16.28C98.4284 16.4933 98.2018 16.78 98.0284 17.14C97.8684 17.4867 97.7884 17.92 97.7884 18.44V24H94.8084V13.08H97.0684L97.5084 14.92H97.6484C97.8618 14.5467 98.1284 14.2067 98.4484 13.9C98.7684 13.5933 99.1351 13.3467 99.5484 13.16C99.9751 12.9733 100.428 12.88 100.908 12.88ZM107.2 12.88C108.213 12.88 109.08 13.0733 109.8 13.46C110.533 13.8467 111.1 14.4067 111.5 15.14C111.9 15.8733 112.1 16.7733 112.1 17.84V19.28H105.06C105.087 20.12 105.333 20.78 105.8 21.26C106.28 21.74 106.94 21.98 107.78 21.98C108.487 21.98 109.127 21.9133 109.7 21.78C110.273 21.6333 110.867 21.4133 111.48 21.12V23.42C110.947 23.6867 110.38 23.88 109.78 24C109.193 24.1333 108.48 24.2 107.64 24.2C106.547 24.2 105.58 24 104.74 23.6C103.9 23.1867 103.24 22.5667 102.76 21.74C102.28 20.9133 102.04 19.8733 102.04 18.62C102.04 17.34 102.253 16.28 102.68 15.44C103.12 14.5867 103.727 13.9467 104.5 13.52C105.273 13.0933 106.173 12.88 107.2 12.88ZM107.22 15C106.647 15 106.167 15.1867 105.78 15.56C105.407 15.9333 105.187 16.5133 105.12 17.3H109.3C109.3 16.86 109.22 16.4667 109.06 16.12C108.913 15.7733 108.687 15.5 108.38 15.3C108.073 15.1 107.687 15 107.22 15Z" fill="white"/>
<rect x="0.6" y="0.6" width="116.8" height="31.8" stroke="white" stroke-width="1.2"/>
</svg>
